<svg xmlns="http://www.w3.org/2000/svg" width="199.987" height="194.367" viewBox="0 0 199.987 194.367"><path d="M135.215,194.367c-12.032,0-24.54-4.513-35.222-12.707-10.681,8.194-23.189,12.706-35.219,12.706A44.852,44.852,0,0,1,51.487,192.4a41.141,41.141,0,0,1-22.66-17.353,46.3,46.3,0,0,1-5.957-14.416,55.363,55.363,0,0,1-1.229-16.306,64.187,64.187,0,0,1,3.573-17,64.2,64.2,0,0,1-12.882-11.652A55.378,55.378,0,0,1,3.741,101.76,46.3,46.3,0,0,1,.086,86.594a41.249,41.249,0,0,1,1.927-15.4,43.125,43.125,0,0,1,18.7-23.3,54.8,54.8,0,0,1,14.6-6.3,63.53,63.53,0,0,1,16.711-2.192c.583,0,1.174.008,1.759.023a64.195,64.195,0,0,1,7.1-15.853A55.369,55.369,0,0,1,71.456,11.09,46.3,46.3,0,0,1,84.75,2.927a41.165,41.165,0,0,1,30.49,0,46.3,46.3,0,0,1,13.294,8.163,55.37,55.37,0,0,1,10.579,12.472,64.188,64.188,0,0,1,7.1,15.854c.6-.016,1.189-.023,1.764-.023a63.532,63.532,0,0,1,16.711,2.192,54.785,54.785,0,0,1,14.595,6.3,43.127,43.127,0,0,1,18.694,23.306,41.254,41.254,0,0,1,1.928,15.4,46.3,46.3,0,0,1-3.655,15.166,55.366,55.366,0,0,1-8.592,13.915,64.19,64.19,0,0,1-12.883,11.652,64.193,64.193,0,0,1,3.573,17,55.363,55.363,0,0,1-1.229,16.306,46.293,46.293,0,0,1-5.957,14.416A41.139,41.139,0,0,1,148.5,192.4,44.871,44.871,0,0,1,135.215,194.367ZM100,84.3a19.257,19.257,0,1,0,7.519,1.518A19.2,19.2,0,0,0,100,84.3Z" transform="translate(-0.002)"/></svg>